<svg xmlns="http://www.w3.org/2000/svg" version="1.1" xmlns:xlink="http://www.w3.org/1999/xlink" xmlns:svgjs="http://svgjs.dev/svgjs" width="128" height="128" viewBox="0 0 128 128"><g transform="matrix(0.8046875,0,0,0.8046875,12.333870967741937,21.85739575402213)"><svg viewBox="0 0 155 128" data-background-color="#ffffff" preserveAspectRatio="xMidYMid meet" height="105" width="128" xmlns="http://www.w3.org/2000/svg" xmlns:xlink="http://www.w3.org/1999/xlink"><g id="tight-bounds" transform="matrix(1,0,0,1,0.25,-0.15677966101696938)"><svg viewBox="0 0 154.5 128.3135593220339" height="128.3135593220339" width="154.5"><g><svg viewBox="0 0 154.5 128.3135593220339" height="128.3135593220339" width="154.5"><g><svg viewBox="0 0 154.5 128.3135593220339" height="128.3135593220339" width="154.5"><g id="textblocktransform"><svg viewBox="0 0 154.5 128.3135593220339" height="128.3135593220339" width="154.5" id="textblock"><g><svg viewBox="0 0 154.5 128.3135593220339" height="128.3135593220339" width="154.5"><g transform="matrix(1,0,0,1,0,0)"><svg width="154.5" viewBox="0.4 -34.3 41.300000000000004 34.3" height="128.3135593220339" data-palette-color="#d2d6dc"><path d="M36.9-5.25L41.7-5.25 41.7 0 24.75 0 24.75-5.25 30-5.25 27.5-11.75 13.85-11.75 11.35-5.25 17.1-5.25 17.1 0 0.4 0 0.4-5.25 5.1-5.25 15.25-29.1 10.95-29.1 10.95-34.3 31-34.3 31-29.1 26.65-29.1 36.9-5.25ZM15.65-16.45L25.7-16.45 20.8-29.1 20.55-29.1 15.65-16.45Z" opacity="1" transform="matrix(1,0,0,1,0,0)" fill="#d2d6dc" class="undefined-text-0" data-fill-palette-color="primary" id="text-0"></path></svg></g></svg></g></svg></g></svg></g></svg></g><defs></defs></svg><rect width="154.5" height="128.3135593220339" fill="none" stroke="none" visibility="hidden"></rect></g></svg></g></svg>