<svg xmlns="http://www.w3.org/2000/svg" version="1.1" xmlns:xlink="http://www.w3.org/1999/xlink" xmlns:svgjs="http://svgjs.dev/svgjs" width="1000" height="154" viewBox="0 0 1000 154"><g transform="matrix(1,0,0,1,-0.6060605964229353,0.40518423830286565)"><svg viewBox="0 0 396 61" data-background-color="#ffffff" preserveAspectRatio="xMidYMid meet" height="154" width="1000" xmlns="http://www.w3.org/2000/svg" xmlns:xlink="http://www.w3.org/1999/xlink"><g id="tight-bounds" transform="matrix(1,0,0,1,0.24000000381647624,-0.1604950554316531)"><svg viewBox="0 0 395.52 61.320990110863285" height="61.320990110863285" width="395.52"><g><svg viewBox="0 0 483.23897225620254 74.92084405063292" height="61.320990110863285" width="395.52"><g transform="matrix(1,0,0,1,0,10.354472658227852)"><svg viewBox="0 0 395.52 54.21189873417722" height="54.21189873417722" width="395.52"><g id="textblocktransform"><svg viewBox="0 0 395.52 54.21189873417722" height="54.21189873417722" width="395.52" id="textblock"><g><svg viewBox="0 0 395.52 54.21189873417722" height="54.21189873417722" width="395.52"><g transform="matrix(1,0,0,1,0,0)"><svg width="395.52" viewBox="0.4000000059604645 -34.29999923706055 252.79000854492188 34.64999771118164" height="54.21189873417722" data-palette-color="#d2d6dc"><path d="M36.9-5.25L41.7-5.25 41.7 0 24.75 0 24.75-5.25 30-5.25 27.5-11.75 13.85-11.75 11.35-5.25 17.1-5.25 17.1 0 0.4 0 0.4-5.25 5.1-5.25 15.25-29.1 10.95-29.1 10.95-34.3 31-34.3 31-29.1 26.65-29.1 36.9-5.25ZM15.65-16.45L25.7-16.45 20.8-29.1 20.55-29.1 15.65-16.45ZM88.2-34.3L88.2-29.05 82.4-29.05 82.4 0.3 78.95 0.35 56.1-25.25 56.1-5.25 62-5.25 62 0 43.85 0 43.85-5.25 49.85-5.25 49.85-29.05 43.85-29.05 43.85-34.3 56.1-34.3 76.3-11.1 76.3-29.05 70.3-29.05 70.3-34.3 88.2-34.3ZM109.55-29.05L103.5-29.05 103.5-5.25 109.55-5.25 109.55 0 90.84 0 90.84-5.25 96.84-5.25 96.84-29.05 90.84-29.05 90.84-34.3 109.55-34.3 109.55-29.05ZM139.49-13.15L145.74-13.15 145.74 0 112.99 0 112.99-5.25 118.99-5.25 118.99-29.05 112.99-29.05 112.99-34.3 131.59-34.3 131.59-29.05 125.59-29.05 125.59-5.25 139.49-5.25 139.49-13.15ZM168.09-29.05L162.04-29.05 162.04-5.25 168.09-5.25 168.09 0 149.39 0 149.39-5.25 155.39-5.25 155.39-29.05 149.39-29.05 149.39-34.3 168.09-34.3 168.09-29.05ZM215.89-34.3L215.89-29.05 210.09-29.05 210.09 0.3 206.64 0.35 183.79-25.25 183.79-5.25 189.69-5.25 189.69 0 171.54 0 171.54-5.25 177.54-5.25 177.54-29.05 171.54-29.05 171.54-34.3 183.79-34.3 203.99-11.1 203.99-29.05 197.99-29.05 197.99-34.3 215.89-34.3ZM253.19-22.4L247.39-22.4 247.39-29.05 230.99-29.05 230.99-19.4 237.59-19.4 237.59-23.7 242.54-23.7 242.54-10.35 237.59-10.35 237.59-14.65 230.99-14.65 230.99-5.25 247.39-5.25 247.39-11.9 253.19-11.9 253.19 0 218.54 0 218.54-5.25 224.49-5.25 224.49-29.05 218.54-29.05 218.54-34.3 253.19-34.3 253.19-22.4Z" opacity="1" transform="matrix(1,0,0,1,0,0)" fill="#d2d6dc" class="undefined-text-0" data-fill-palette-color="primary" id="text-0"></path></svg></g></svg></g></svg></g></svg></g><g transform="matrix(1,0,0,1,408.3181282055696,0)"><svg viewBox="0 0 74.92084405063292 74.92084405063292" height="74.92084405063292" width="74.92084405063292"><g data-palette-color="#d2d6dc"><rect width="20.47836404050633" height="74.92084405063292" fill="#d2d6dc" stroke="transparent" data-fill-palette-color="accent" x="0" fill-opacity="1"></rect><rect width="20.47836404050633" height="74.92084405063292" fill="#d2d6dc" stroke="transparent" data-fill-palette-color="accent" x="24.973614683544305" fill-opacity="0.75"></rect><rect width="20.47836404050633" height="74.92084405063292" fill="#d2d6dc" stroke="transparent" data-fill-palette-color="accent" x="49.94722936708861" fill-opacity="0.5"></rect></g></svg></g></svg></g><defs></defs></svg><rect width="395.52" height="61.320990110863285" fill="none" stroke="none" visibility="hidden"></rect></g></svg></g></svg>